<?xml version="1.0" encoding="UTF-8" standalone="no"?>
<!-- Created with Inkscape (http://www.inkscape.org/) -->

<svg
   xmlns:dc="http://purl.org/dc/elements/1.1/"
   xmlns:cc="http://creativecommons.org/ns#"
   xmlns:rdf="http://www.w3.org/1999/02/22-rdf-syntax-ns#"
   xmlns:svg="http://www.w3.org/2000/svg"
   xmlns="http://www.w3.org/2000/svg"
   xmlns:sodipodi="http://sodipodi.sourceforge.net/DTD/sodipodi-0.dtd"
   xmlns:inkscape="http://www.inkscape.org/namespaces/inkscape"
   width="125.69209mm"
   height="225.77777mm"
   viewBox="0 0 445.36566 799.99999"
   id="svg2"
   version="1.1"
   inkscape:version="0.91 r13725"
   sodipodi:docname="Pineapple3.svg">
  <defs
     id="defs4" />
  <sodipodi:namedview
     id="base"
     pagecolor="#ffffff"
     bordercolor="#666666"
     borderopacity="1.0"
     inkscape:pageopacity="0.0"
     inkscape:pageshadow="2"
     inkscape:zoom="0.41875001"
     inkscape:cx="222.68284"
     inkscape:cy="633.0286"
     inkscape:document-units="px"
     inkscape:current-layer="layer1"
     showgrid="false"
     fit-margin-top="0"
     fit-margin-left="0"
     fit-margin-right="0"
     fit-margin-bottom="0"
     inkscape:window-width="1600"
     inkscape:window-height="837"
     inkscape:window-x="-8"
     inkscape:window-y="-8"
     inkscape:window-maximized="1" />
  <metadata
     id="metadata7">
    <rdf:RDF>
      <cc:Work
         rdf:about="">
        <dc:format>image/svg+xml</dc:format>
        <dc:type
           rdf:resource="http://purl.org/dc/dcmitype/StillImage" />
        <dc:title></dc:title>
      </cc:Work>
    </rdf:RDF>
  </metadata>
  <g
     inkscape:label="Layer 1"
     inkscape:groupmode="layer"
     id="layer1"
     transform="translate(122.78185,1404.2442)">
    <path
       inkscape:connector-curvature="0"
       d="m -36.821755,-1250.9451 -49.159606,20.5621 c 0,0 26.678512,14.1586 55.277878,22.4831 28.6705079,6.1188 149.115103,14.2298 149.115103,14.2298 l -155.233375,-57.275 z"
       id="path1252"
       style="font-style:normal;font-variant:normal;font-weight:normal;font-stretch:normal;letter-spacing:normal;word-spacing:normal;text-anchor:start;fill:#3d995c;fill-opacity:1;fill-rule:evenodd;stroke:#3d995c;stroke-width:0;stroke-linecap:butt;stroke-linejoin:miter;stroke-miterlimit:10.43299961;stroke-dasharray:none;stroke-dashoffset:0;stroke-opacity:1" />
    <path
       inkscape:connector-curvature="0"
       d="m -36.821755,-1250.9451 -49.159606,20.5621 c 0,0 26.678512,14.1586 55.277878,22.4831 28.6705079,6.1188 149.115103,14.2298 149.115103,14.2298 l -155.233375,-57.275 z"
       id="path1254"
       style="font-style:normal;font-variant:normal;font-weight:normal;font-stretch:normal;letter-spacing:normal;word-spacing:normal;text-anchor:start;fill:#308a2a;fill-opacity:1;stroke:#000000;stroke-width:12.27338409;stroke-linecap:butt;stroke-linejoin:miter;stroke-miterlimit:10.43299961;stroke-dasharray:none;stroke-dashoffset:0;stroke-opacity:1" />
    <path
       inkscape:connector-curvature="0"
       d="m 176.0372,-1152.5459 0,-0.071 0,-0.1423 0.71143,-0.2134 0,-0.2846 0.71143,-0.3558 0.71142,-0.498 1.42286,-1.1384 2.13428,-1.5653 2.84571,-1.7787 2.84571,-2.1345 3.55713,-2.4191 3.55714,-2.7036 4.26856,-2.9883 4.26856,-3.344 4.26856,-3.5575 4.97999,-3.7709 4.26856,-4.1266 5.69142,-4.3401 4.97999,-4.5536 5.69141,-4.8381 4.97999,-5.0516 5.69142,-5.3362 5.69141,-5.4785 5.69142,-5.6919 5.69142,-5.9766 5.69141,-6.1188 4.97999,-6.3323 5.69142,-6.4745 5.69141,-6.688 4.97999,-6.9015 4.97999,-6.9726 4.97999,-7.1861 4.26856,-7.3284 4.97999,-7.5418 4.26856,-7.6129 c 0,0 -106.71405,14.5144 -141.57397,77.8371 0,0 63.317,-91.9958 69.71985,-135.0411 0,0 -92.48551,77.7661 -106.00263,114.7636 0,0 48.37704,-114.7636 36.28278,-157.88 0,0 -91.453087,65.9317 -83.627395,143.7689 0,0 -30.912352,-129.3256 -65.558847,-135.4444 0,0 -55.497806,99.6895 63.025927,132.4893 l 3.619476,4.6437 c 0,0 -120.002428,-69.5413 -152.514642,-45.1371 0,0 48.946178,77.8371 155.375657,86.1616 0,0 -68.811994,-6.0712 -122.733536,-4.7371 -29.245982,0.7236 -54.111494,3.6257 -61.241486,10.8561 0,0 85.8692387,36.713 120.586876,28.6732 0,0 86.15381,-6.1189 149.47081,20.5621 z"
       id="path1258"
       style="font-style:normal;font-variant:normal;font-weight:normal;font-stretch:normal;letter-spacing:normal;word-spacing:normal;text-anchor:start;fill:#308a2a;fill-opacity:1;stroke:#000000;stroke-width:12.27338409;stroke-linecap:butt;stroke-linejoin:miter;stroke-miterlimit:10.43299961;stroke-dasharray:none;stroke-dashoffset:0;stroke-opacity:1"
       sodipodi:nodetypes="ccccccccccccccccccccccccccccccccccccccccccccccscccc" />
    <path
       inkscape:connector-curvature="0"
       d="m 204.49428,-640.62763 9.95998,-6.97262 9.95998,-7.75526 9.24855,-8.46675 8.53712,-9.24939 7.8257,-9.96088 7.8257,-10.53008 6.40284,-11.17042 6.40284,-11.73961 6.40285,-12.23765 4.97999,-12.7357 4.97999,-13.23375 4.26856,-13.58949 3.55713,-14.01638 3.55714,-14.30099 2.84571,-14.58557 2.13428,-14.87018 1.42285,-15.08362 1.42285,-15.22592 0.71143,-15.43937 0.71143,-15.43937 -0.71143,-15.58166 0,-15.58167 -1.42285,-15.51052 -1.42286,-15.51052 -2.13428,-15.43936 -2.13428,-15.22592 -2.84571,-15.08363 -3.55713,-14.87019 -3.55714,-14.6567 -4.26856,-14.3721 -4.26856,-14.0164 -4.97999,-13.5895 c -43.39705,-106.4392 -147.26539,-116.7558 -225.522359,-106.4392 -40.622482,6.1189 -58.9772983,14.4433 -110.1289,77.7661 -49.159601,65.5995 -63.388141,100.39144 -55.277881,212.94942 6.11828,114.76359 77.758975,200.92523 126.705152,241.76485 49.373034,43.04524 134.744278,36.99756 192.369858,0 z"
       id="path1260"
       style="font-style:normal;font-variant:normal;font-weight:normal;font-stretch:normal;letter-spacing:normal;word-spacing:normal;text-anchor:start;fill:#ff6600;fill-opacity:1;fill-rule:evenodd;stroke:#ff6600;stroke-width:0;stroke-linecap:butt;stroke-linejoin:miter;stroke-miterlimit:10.43299961;stroke-dasharray:none;stroke-dashoffset:0;stroke-opacity:1" />
    <path
       inkscape:connector-curvature="0"
       d="m 204.49428,-640.62763 9.95998,-6.97262 9.95998,-7.75526 9.24855,-8.46675 8.53712,-9.24939 7.8257,-9.96088 7.8257,-10.53008 6.40284,-11.17042 6.40284,-11.73961 6.40285,-12.23765 4.97999,-12.7357 4.97999,-13.23375 4.26856,-13.58949 3.55713,-14.01638 3.55714,-14.30099 2.84571,-14.58557 2.13428,-14.87018 1.42285,-15.08362 1.42285,-15.22592 0.71143,-15.43937 0.71143,-15.43937 -0.71143,-15.58166 0,-15.58167 -1.42285,-15.51052 -1.42286,-15.51052 -2.13428,-15.43936 -2.13428,-15.22592 -2.84571,-15.08363 -3.55713,-14.87019 -3.55714,-14.6567 -4.26856,-14.3721 -4.26856,-14.0164 -4.97999,-13.5895 c -43.39705,-106.4392 -147.26539,-116.7558 -225.522359,-106.4392 -40.622482,6.1189 -58.9772983,14.4433 -110.1289,77.7661 -49.159601,65.5995 -63.388141,100.39144 -55.277881,212.94942 6.11828,114.76359 77.758975,200.92523 126.705152,241.76485 49.373034,43.04524 134.744278,36.99756 192.369858,0 z"
       id="path1262"
       style="font-style:normal;font-variant:normal;font-weight:normal;font-stretch:normal;letter-spacing:normal;word-spacing:normal;text-anchor:start;fill:#d4af37;fill-opacity:1;stroke:#000000;stroke-width:12.27338409;stroke-linecap:butt;stroke-linejoin:miter;stroke-miterlimit:10.43299961;stroke-dasharray:none;stroke-dashoffset:0;stroke-opacity:1" />
    <path
       inkscape:connector-curvature="0"
       d="m 108.45164,-1168.9813 c 0,0 177.85675,139.2389 182.12531,155.6744"
       id="path1264"
       style="font-style:normal;font-variant:normal;font-weight:normal;font-stretch:normal;letter-spacing:normal;word-spacing:normal;text-anchor:start;fill:none;stroke:#000000;stroke-width:6.1367631;stroke-linecap:butt;stroke-linejoin:miter;stroke-miterlimit:10.43299961;stroke-dasharray:none;stroke-dashoffset:0;stroke-opacity:1" />
    <path
       inkscape:connector-curvature="0"
       d="m 2.0933015,-1154.8226 c 0,0 165.4067785,215.15504 302.7121885,272.43012"
       id="path1266"
       style="font-style:normal;font-variant:normal;font-weight:normal;font-stretch:normal;letter-spacing:normal;word-spacing:normal;text-anchor:start;fill:none;stroke:#000000;stroke-width:6.1367631;stroke-linecap:butt;stroke-linejoin:miter;stroke-miterlimit:10.43299961;stroke-dasharray:none;stroke-dashoffset:0;stroke-opacity:1" />
    <path
       inkscape:connector-curvature="0"
       d="m -55.105429,-1105.5874 c 0,0 173.517049,249.87585 347.816659,327.64189"
       id="path1268"
       style="font-style:normal;font-variant:normal;font-weight:normal;font-stretch:normal;letter-spacing:normal;word-spacing:normal;text-anchor:start;fill:none;stroke:#000000;stroke-width:6.1367631;stroke-linecap:butt;stroke-linejoin:miter;stroke-miterlimit:10.43299961;stroke-dasharray:none;stroke-dashoffset:0;stroke-opacity:1" />
    <path
       inkscape:connector-curvature="0"
       d="m -98.217905,-1027.7502 c 0,0 153.312518,255.92351 347.532085,346.28295"
       id="path1270"
       style="font-style:normal;font-variant:normal;font-weight:normal;font-stretch:normal;letter-spacing:normal;word-spacing:normal;text-anchor:start;fill:none;stroke:#000000;stroke-width:6.1367631;stroke-linecap:butt;stroke-linejoin:miter;stroke-miterlimit:10.43299961;stroke-dasharray:none;stroke-dashoffset:0;stroke-opacity:1" />
    <path
       inkscape:connector-curvature="0"
       d="m -114.58073,-921.31108 c 0,0 141.14712,274.56462 319.07501,280.68345"
       id="path1272"
       style="font-style:normal;font-variant:normal;font-weight:normal;font-stretch:normal;letter-spacing:normal;word-spacing:normal;text-anchor:start;fill:none;stroke:#000000;stroke-width:6.1367631;stroke-linecap:butt;stroke-linejoin:miter;stroke-miterlimit:10.43299961;stroke-dasharray:none;stroke-dashoffset:0;stroke-opacity:1" />
    <path
       inkscape:connector-curvature="0"
       d="m 98.49166,-1173.108 c 0,0 -155.873656,151.4766 -206.95411,173.95974"
       id="path1274"
       style="font-style:normal;font-variant:normal;font-weight:normal;font-stretch:normal;letter-spacing:normal;word-spacing:normal;text-anchor:start;fill:none;stroke:#000000;stroke-width:6.1367631;stroke-linecap:butt;stroke-linejoin:miter;stroke-miterlimit:10.43299961;stroke-dasharray:none;stroke-dashoffset:0;stroke-opacity:1" />
    <path
       inkscape:connector-curvature="0"
       d="m 190.26574,-1152.5459 c 0,0 -149.541952,218.99717 -304.84647,276.27224"
       id="path1276"
       style="font-style:normal;font-variant:normal;font-weight:normal;font-stretch:normal;letter-spacing:normal;word-spacing:normal;text-anchor:start;fill:none;stroke:#000000;stroke-width:6.1367631;stroke-linecap:butt;stroke-linejoin:miter;stroke-miterlimit:10.43299961;stroke-dasharray:none;stroke-dashoffset:0;stroke-opacity:1" />
    <path
       inkscape:connector-curvature="0"
       d="m 247.1799,-1099.4686 c 0,0 -145.13111,241.76487 -331.240408,321.52309"
       id="path1278"
       style="font-style:normal;font-variant:normal;font-weight:normal;font-stretch:normal;letter-spacing:normal;word-spacing:normal;text-anchor:start;fill:none;stroke:#000000;stroke-width:6.1367631;stroke-linecap:butt;stroke-linejoin:miter;stroke-miterlimit:10.43299961;stroke-dasharray:none;stroke-dashoffset:0;stroke-opacity:1" />
    <path
       inkscape:connector-curvature="0"
       d="m 290.57695,-1017.5047 c 0,0 -139.43969,239.55919 -323.485857,331.83965"
       id="path1280"
       style="font-style:normal;font-variant:normal;font-weight:normal;font-stretch:normal;letter-spacing:normal;word-spacing:normal;text-anchor:start;fill:none;stroke:#000000;stroke-width:6.1367631;stroke-linecap:butt;stroke-linejoin:miter;stroke-miterlimit:10.43299961;stroke-dasharray:none;stroke-dashoffset:0;stroke-opacity:1" />
    <path
       inkscape:connector-curvature="0"
       d="m 306.93977,-908.85997 c 0,0 -127.34543,243.47243 -294.815348,268.23234"
       id="path1282"
       style="font-style:normal;font-variant:normal;font-weight:normal;font-stretch:normal;letter-spacing:normal;word-spacing:normal;text-anchor:start;fill:none;stroke:#000000;stroke-width:6.1367631;stroke-linecap:butt;stroke-linejoin:miter;stroke-miterlimit:10.43299961;stroke-dasharray:none;stroke-dashoffset:0;stroke-opacity:1" />
    <path
       inkscape:connector-curvature="0"
       d="m 38.802935,-1083.1043 0,0 0,0.071 0,0.071 -0.07114,0.071 0,0.1423 -0.07114,0.1423 0,0.1423 -0.07114,0.2134 -0.142286,0.4269 -0.142285,0.4981 -0.142286,0.6403 -0.213428,0.6403 -0.213428,0.7115 -0.284571,0.7827 -0.28457,0.8538 -0.355714,0.9249 -0.355713,0.9249 -0.355714,0.9961 -0.426856,1.0673 -0.497999,0.9961 -0.497999,1.0672 -0.497999,1.1384 -0.640284,1.0672 -0.569142,1.1384 -0.640284,1.1384 -0.711427,1.0672 -0.711427,1.1384 -0.78257,1.0673 -0.782569,1.0672 -0.853713,1.0672 -0.924855,0.9961 -0.924855,0.9961 -0.995998,0.9249 -1.06714,0.8538 -1.067141,0.8538 -1.138283,0.7827 c -6.047129,6.1188 10.315692,16.4354 12.236544,26.6809"
       id="path1284"
       style="font-style:normal;font-variant:normal;font-weight:normal;font-stretch:normal;letter-spacing:normal;word-spacing:normal;text-anchor:start;fill:none;stroke:#000000;stroke-width:6.1367631;stroke-linecap:butt;stroke-linejoin:miter;stroke-miterlimit:10.43299961;stroke-dasharray:none;stroke-dashoffset:0;stroke-opacity:1" />
    <path
       inkscape:connector-curvature="0"
       d="m -16.474943,-1027.7502 0,0 0,0 -0.07114,0.071 0,0.1423 0,0.071 0,0.1423 -0.07114,0.3557 -0.07114,0.4269 -0.07114,0.4981 -0.142285,0.5692 -0.142286,0.7114 -0.142285,0.7115 -0.213428,0.7827 -0.213428,0.8538 -0.284571,0.8538 -0.284571,0.996 -0.355713,0.925 -0.355714,1.0672 -0.355714,0.9961 -0.497998,1.0672 -0.497999,1.0673 -0.497999,1.1384 -0.640284,1.0672 -0.640285,1.1384 -0.640284,1.1384 -0.78257,1.0672 -0.782569,1.1384 -0.853713,1.0672 -0.924855,0.9961 -0.995998,1.0673 -1.06714,0.9961 -1.067141,0.9249 -1.209426,0.9249 -1.209426,0.8538 -1.351711,0.8538 c -6.118272,6.11884 10.315692,16.36432 14.441968,26.68095"
       id="path1286"
       style="font-style:normal;font-variant:normal;font-weight:normal;font-stretch:normal;letter-spacing:normal;word-spacing:normal;text-anchor:start;fill:none;stroke:#000000;stroke-width:6.1367631;stroke-linecap:butt;stroke-linejoin:miter;stroke-miterlimit:10.43299961;stroke-dasharray:none;stroke-dashoffset:0;stroke-opacity:1" />
    <path
       inkscape:connector-curvature="0"
       d="m -59.302849,-1085.0253 0,0 0,0.071 0,0 0,0.1422 -0.07114,0.2135 -0.07114,0.2846 -0.07114,0.4269 -0.07114,0.4269 -0.142286,0.5692 -0.142285,0.5692 -0.142286,0.7115 -0.142285,0.7115 -0.284571,0.7826 -0.213428,0.7826 -0.284571,0.925 -0.284571,0.9249 -0.355713,0.925 -0.355714,0.996 -0.426856,1.0673 -0.426856,0.9961 -0.497999,1.0672 -0.497999,1.1384 -0.569141,1.0672 -0.640285,1.1384 -0.640284,1.1384 -0.711427,1.0672 -0.711427,1.1384 -0.853712,1.1384 -0.78257,1.0672 -0.924855,1.0673 -0.924855,1.0672 -0.995998,1.0673 -1.067141,0.996 -1.138283,0.9961 c -8.039125,3.9132 8.323696,14.1587 12.236545,26.3964"
       id="path1288"
       style="font-style:normal;font-variant:normal;font-weight:normal;font-stretch:normal;letter-spacing:normal;word-spacing:normal;text-anchor:start;fill:none;stroke:#000000;stroke-width:6.1367631;stroke-linecap:butt;stroke-linejoin:miter;stroke-miterlimit:10.43299961;stroke-dasharray:none;stroke-dashoffset:0;stroke-opacity:1" />
    <path
       inkscape:connector-curvature="0"
       d="m -6.2303944,-1138.3872 0,0 0,0.071 0,0 -0.071143,0.1423 0,0.2134 -0.1422854,0.2846 -0.071143,0.4269 -0.1422854,0.4269 -0.2134281,0.5692 -0.2134281,0.5692 -0.2134281,0.7115 -0.2845708,0.7115 -0.2845708,0.7826 -0.2845708,0.7827 -0.4268562,0.9249 -0.3557135,0.9249 -0.4268562,0.925 -0.4979989,0.9961 -0.4979993,1.0672 -0.497999,0.9961 -0.569142,1.0672 -0.640284,1.1384 -0.640284,1.0673 -0.711427,1.1383 -0.711427,1.1384 -0.78257,1.0673 -0.78257,1.1384 -0.853712,1.1383 -0.924855,1.0673 -0.924855,1.0672 -0.995998,1.0673 -0.995998,1.0672 -1.138283,0.9961 -1.06714,0.9961 c -8.110268,4.1978 8.323695,14.4432 12.236544,26.6809"
       id="path1290"
       style="font-style:normal;font-variant:normal;font-weight:normal;font-stretch:normal;letter-spacing:normal;word-spacing:normal;text-anchor:start;fill:none;stroke:#000000;stroke-width:6.1367631;stroke-linecap:butt;stroke-linejoin:miter;stroke-miterlimit:10.43299961;stroke-dasharray:none;stroke-dashoffset:0;stroke-opacity:1" />
    <path
       inkscape:connector-curvature="0"
       d="m 50.826051,-1173.108 0,0 0,0.071 0,0.071 0,0.1423 0,0.1423 0,0.1423 -0.711427,0.2135 0,0.2846 0,0.2846 -0.711427,0.2846 0,0.3557 0,0.3558 -0.711427,0.4269 0,0.3557 -0.711427,0.498 -0.711427,0.4269 0,0.4981 -0.711427,0.5692 -0.711427,0.498 -0.711427,0.5692 -0.711427,0.5692 -0.711427,0.6404 -0.711427,0.6403 -0.711427,0.6403 -0.711427,0.6404 -0.78257,0.7115 -0.924855,0.6403 -0.924855,0.7115 -0.995998,0.7826 -1.06714,0.7115 -1.138283,0.7827 -1.138284,0.7826 c -8.039125,6.1188 8.394839,16.0797 12.663401,26.3964"
       id="path1292"
       style="font-style:normal;font-variant:normal;font-weight:normal;font-stretch:normal;letter-spacing:normal;word-spacing:normal;text-anchor:start;fill:none;stroke:#000000;stroke-width:6.1367631;stroke-linecap:butt;stroke-linejoin:miter;stroke-miterlimit:10.43299961;stroke-dasharray:none;stroke-dashoffset:0;stroke-opacity:1" />
    <path
       inkscape:connector-curvature="0"
       d="m 108.45164,-1140.3082 0,0 0,0 0,0.071 0,0.071 0,0.2134 0,0.3558 -0.71143,0.3557 0,0.4981 0,0.498 0,0.6404 -0.71143,0.6403 0,0.7115 0,0.7826 -0.71142,0.8538 0,0.925 -0.71143,0.8538 0,0.9961 -0.71143,0.996 -0.71142,0.9961 -0.71143,1.0673 0,1.0672 -0.71143,1.0672 -0.71143,1.1384 -0.71142,1.1384 -0.71143,1.0673 -0.711426,1.1383 -0.711427,1.1384 -0.711427,1.0673 -1.422854,1.1383 -0.711427,1.0673 -0.711427,1.0672 -1.422854,1.0673 -0.711427,0.9961 -1.422854,0.996 c -6.402843,3.8421 9.959973,16.3643 12.094263,26.3964"
       id="path1294"
       style="font-style:normal;font-variant:normal;font-weight:normal;font-stretch:normal;letter-spacing:normal;word-spacing:normal;text-anchor:start;fill:none;stroke:#000000;stroke-width:6.1367631;stroke-linecap:butt;stroke-linejoin:miter;stroke-miterlimit:10.43299961;stroke-dasharray:none;stroke-dashoffset:0;stroke-opacity:1" />
    <path
       inkscape:connector-curvature="0"
       d="m 178.17148,-1078.9065 0,0 0,0.071 0,0.071 0,0.071 0,0.071 0,0.1423 0,0.2135 0,0.1423 -0.71142,0.4269 0,0.498 0,0.6404 0,0.6403 -0.71143,0.7115 0,0.7826 -0.71143,0.8538 0,0.925 0,0.9249 -0.71142,0.9961 -0.71143,0.9961 0,0.9961 -0.71143,1.0672 -0.71143,1.1384 -0.71142,1.0672 0,1.1384 -0.71143,1.0672 -0.71143,1.1384 -0.71142,1.1384 -0.71143,1.0673 -1.42285,1.0672 -0.71143,1.0672 -0.71143,0.9961 -0.71143,0.9961 -1.42285,0.9961 -0.71143,0.8538 -1.42285,0.9249 -0.71143,0.7827 c -6.40284,6.1188 7.8257,16.3643 12.09426,26.6809"
       id="path1296"
       style="font-style:normal;font-variant:normal;font-weight:normal;font-stretch:normal;letter-spacing:normal;word-spacing:normal;text-anchor:start;fill:none;stroke:#000000;stroke-width:6.1367631;stroke-linecap:butt;stroke-linejoin:miter;stroke-miterlimit:10.43299961;stroke-dasharray:none;stroke-dashoffset:0;stroke-opacity:1" />
    <path
       inkscape:connector-curvature="0"
       d="m 239.35421,-1021.6314 0,0 0,0 0,0.071 0,0.1423 0,0.071 0,0.1423 0,0.1423 0,0.2134 -0.71143,0.4269 0,0.4981 0,0.6403 0,0.6404 0,0.7826 -0.71143,0.7827 0,0.8537 0,0.8538 -0.71143,0.9961 0,0.9961 -0.71142,0.9961 0,1.0672 -0.71143,1.0673 0,1.0672 -0.71143,1.1384 -0.71142,1.0672 -0.71143,1.1384 -0.71143,1.0673 -0.71142,1.1383 -0.71143,1.0673 -0.71143,1.0672 -0.71143,1.0673 -1.42285,0.99604 -0.71143,0.99609 -1.42285,0.92494 -0.71143,0.92494 -1.42285,0.85379 -0.71143,0.35575 -0.71143,0.42689 c -6.40284,4.12665 9.95998,16.36431 14.22854,26.68094"
       id="path1298"
       style="font-style:normal;font-variant:normal;font-weight:normal;font-stretch:normal;letter-spacing:normal;word-spacing:normal;text-anchor:start;fill:none;stroke:#000000;stroke-width:6.1367631;stroke-linecap:butt;stroke-linejoin:miter;stroke-miterlimit:10.43299961;stroke-dasharray:none;stroke-dashoffset:0;stroke-opacity:1" />
    <path
       inkscape:connector-curvature="0"
       d="m 108.45164,-1009.4649 0,0.071 0,0 0,0.071 0,0.071 0,0.1423 0,0.1423 0,0.1423 0,0.2134 -0.71143,0.4269 0,0.498 0,0.6404 0,0.6403 -0.71143,0.7115 0,0.8538 0,0.8538 -0.71142,0.8538 0,0.9961 -0.71143,0.9249 0,1.0673 -0.71143,0.99604 -0.71142,1.13839 -0.71143,1.06723 0,1.06724 -0.71143,1.13839 -0.71143,1.13839 -0.71142,1.06723 -0.71143,1.13839 -0.711426,1.06724 -0.711427,1.06723 -0.711427,1.06724 -1.422854,0.99609 -0.711427,0.99609 -0.711427,0.92494 -1.422854,0.92494 -0.711427,0.78264 -1.422854,0.78264 c -6.402843,4.1978 9.959973,16.43545 12.094263,26.68093"
       id="path1300"
       style="font-style:normal;font-variant:normal;font-weight:normal;font-stretch:normal;letter-spacing:normal;word-spacing:normal;text-anchor:start;fill:none;stroke:#000000;stroke-width:6.1367631;stroke-linecap:butt;stroke-linejoin:miter;stroke-miterlimit:10.43299961;stroke-dasharray:none;stroke-dashoffset:0;stroke-opacity:1" />
    <path
       inkscape:connector-curvature="0"
       d="m 47.268916,-943.86536 0,0 0,0.0711 0,0.0711 0,0.0711 0,0.1423 0,0.14229 0,0.1423 0,0.21345 0,0.42689 -0.711427,0.49805 0,0.64034 0,0.64034 0,0.71149 0,0.78265 -0.711427,0.85379 0,0.92493 0,0.92494 -0.711427,0.99609 0,1.06724 -0.711427,0.99609 0,1.06724 -0.711427,1.13838 -0.711427,1.06724 -0.711427,1.13839 0,1.13838 -0.853712,1.06724 -0.640285,1.13839 -0.711427,1.06723 -0.711427,1.06724 -0.782569,1.06724 -0.853713,0.99609 -0.924855,0.99609 -0.924855,0.92493 -0.995998,0.85379 -1.06714,0.85379 -1.138284,0.78265 c -8.039125,6.11882 8.039126,16.43545 12.449973,26.68093"
       id="path1302"
       style="font-style:normal;font-variant:normal;font-weight:normal;font-stretch:normal;letter-spacing:normal;word-spacing:normal;text-anchor:start;fill:none;stroke:#000000;stroke-width:6.1367631;stroke-linecap:butt;stroke-linejoin:miter;stroke-miterlimit:10.43299961;stroke-dasharray:none;stroke-dashoffset:0;stroke-opacity:1" />
    <path
       inkscape:connector-curvature="0"
       d="m 110.58592,-878.26583 0,0 0,0.0712 0,0.0711 0,0.0711 0,0.1423 0,0.1423 0,0.1423 0,0.21345 -0.71143,0.42689 0,0.49805 0,0.56919 0,0.64034 -0.71143,0.78264 0,0.78264 0,0.78264 -0.71142,0.92494 0,0.92494 -0.71143,0.99609 -0.71143,0.99609 0,1.06724 -0.71142,1.06723 -0.71143,1.06724 0,1.06724 -0.71143,1.13838 -0.71142,1.13839 -0.71143,1.06724 -0.71143,1.13839 -0.71143,1.06723 -0.71142,1.06724 -1.422856,1.06724 -0.711427,0.99609 -0.711427,0.99608 -1.422854,0.99609 -0.711427,0.92494 -1.422854,0.85379 -0.711427,0.78264 c -6.402843,6.11883 7.825692,16.43546 12.094262,26.68094"
       id="path1304"
       style="font-style:normal;font-variant:normal;font-weight:normal;font-stretch:normal;letter-spacing:normal;word-spacing:normal;text-anchor:start;fill:none;stroke:#000000;stroke-width:6.1367631;stroke-linecap:butt;stroke-linejoin:miter;stroke-miterlimit:10.43299961;stroke-dasharray:none;stroke-dashoffset:0;stroke-opacity:1" />
    <path
       inkscape:connector-curvature="0"
       d="m 176.0372,-949.98419 0,0.0711 0,0 0,0.0711 0,0.0711 0,0.21345 -0.71142,0.35574 0,0.35575 0,0.49804 0,0.49805 0,0.64034 -0.71143,0.64034 0,0.71149 -0.71143,0.78264 0,0.85379 0,0.85379 -0.71143,0.92494 -0.71142,0.99609 0,0.99609 -0.71143,0.99609 -0.71143,1.06723 0,1.06724 -0.71142,1.06724 -0.71143,1.13839 -0.71143,1.06723 -0.71142,1.13839 -0.71143,1.13839 -1.42286,1.06723 -0.71142,1.13839 -0.71143,1.13839 -0.71143,1.06723 -1.42285,1.06724 -0.71143,0.99609 -1.42285,1.06724 -0.71143,0.92494 c -6.40284,4.1978 9.95998,14.44328 12.09426,26.68093"
       id="path1306"
       style="font-style:normal;font-variant:normal;font-weight:normal;font-stretch:normal;letter-spacing:normal;word-spacing:normal;text-anchor:start;fill:none;stroke:#000000;stroke-width:6.1367631;stroke-linecap:butt;stroke-linejoin:miter;stroke-miterlimit:10.43299961;stroke-dasharray:none;stroke-dashoffset:0;stroke-opacity:1" />
    <path
       inkscape:connector-curvature="0"
       d="m 241.48849,-896.62232 0,0.0711 0,0 0,0.0711 0,0.0711 0,0.21345 0,0.35574 -0.71143,0.35575 0,0.49804 0,0.49805 0,0.64034 -0.71143,0.64034 0,0.71149 0,0.78265 -0.71142,0.85379 0,0.85378 -0.71143,0.92494 -0.71143,0.99609 0,0.99609 -0.71143,0.99609 -0.71142,1.06724 0,1.06723 -0.71143,1.06724 -0.71143,1.13839 -0.71142,1.06724 -0.71143,1.13838 -0.71143,1.13839 -0.71142,1.06724 -1.42286,1.13838 -0.71143,1.13839 -0.71142,1.06724 -1.42286,1.06723 -0.71142,0.99609 -1.42286,1.06724 -0.71142,0.92494 c -6.40285,3.9132 9.95997,14.22983 12.09425,26.39634"
       id="path1308"
       style="font-style:normal;font-variant:normal;font-weight:normal;font-stretch:normal;letter-spacing:normal;word-spacing:normal;text-anchor:start;fill:none;stroke:#000000;stroke-width:6.1367631;stroke-linecap:butt;stroke-linejoin:miter;stroke-miterlimit:10.43299961;stroke-dasharray:none;stroke-dashoffset:0;stroke-opacity:1" />
    <path
       inkscape:connector-curvature="0"
       d="m 298.40265,-849.59272 0,0 0,0 0,0.0711 0,0.0711 0,0.1423 0,0.14229 0,0.1423 0,0.21345 0,0.42689 0,0.49805 -0.71143,0.64034 0,0.64034 0,0.7115 -0.71143,0.85379 0,0.85379 0,0.85379 -0.71142,0.99608 0,0.92494 -0.71143,1.06724 -0.71143,1.06724 0,1.06723 -0.71143,1.06724 -0.71142,1.06724 -0.71143,1.13839 -0.71143,1.13838 -0.71142,1.06724 -0.71143,1.13839 -0.71143,1.06723 -0.71142,1.06724 -0.71143,1.06724 -0.71143,0.99609 -1.42285,0.99609 -0.71143,0.92493 -1.42285,0.92494 -0.71143,0.78264 -1.42285,0.85379 c -5.69142,6.04768 8.53712,16.36431 12.80568,26.68094"
       id="path1310"
       style="font-style:normal;font-variant:normal;font-weight:normal;font-stretch:normal;letter-spacing:normal;word-spacing:normal;text-anchor:start;fill:none;stroke:#000000;stroke-width:6.1367631;stroke-linecap:butt;stroke-linejoin:miter;stroke-miterlimit:10.43299961;stroke-dasharray:none;stroke-dashoffset:0;stroke-opacity:1" />
    <path
       inkscape:connector-curvature="0"
       d="m 290.57695,-974.38835 0,0 0,0 0,0.0711 0,0.1423 0,0.0711 0,0.14229 -0.71143,0.1423 0,0.21345 0,0.42689 0,0.49805 0,0.56919 0,0.71149 0,0.7115 -0.71142,0.78264 0,0.85379 0,0.85379 -0.71143,0.99608 0,0.92494 0,1.06724 -0.71143,0.99609 0,1.06724 -0.71143,1.06723 -0.71142,1.13839 0,1.06724 -0.71143,1.13838 -0.71143,1.13839 -0.71142,1.06724 -0.71143,1.13839 -0.71143,1.06723 -0.71142,0.99609 -0.71143,1.06724 -1.42286,0.99609 -0.71142,0.92494 -0.71143,0.92493 -1.42285,0.85379 -0.71143,0.85379 c -8.53712,6.11883 7.8257,16.36431 12.09426,26.39634"
       id="path1312"
       style="font-style:normal;font-variant:normal;font-weight:normal;font-stretch:normal;letter-spacing:normal;word-spacing:normal;text-anchor:start;fill:none;stroke:#000000;stroke-width:6.1367631;stroke-linecap:butt;stroke-linejoin:miter;stroke-miterlimit:10.43299961;stroke-dasharray:none;stroke-dashoffset:0;stroke-opacity:1" />
    <path
       inkscape:connector-curvature="0"
       d="m 179.59434,-814.58733 0,0 0,0 0,0.0711 0,0.14229 0,0.0711 0,0.1423 0,0.1423 0,0.21345 0,0.42689 0,0.49805 0,0.64034 -0.71143,0.64034 0,0.71149 0,0.78264 -0.71143,0.85379 0,0.85379 -0.71142,0.92494 0,0.99609 -0.71143,0.99609 -0.71143,1.06724 0,1.06723 -0.71142,1.06724 -0.71143,1.06724 -0.71143,1.13839 -0.71143,1.06723 -0.71142,1.13839 -0.71143,1.06724 -0.71143,1.06723 -0.71142,1.06724 -0.71143,0.99609 -0.71143,1.06724 -1.42285,0.92494 -0.71143,0.92494 -0.71143,0.92494 -1.42285,0.85379 -1.42285,0.78264 c -7.8257,6.11882 8.53712,16.3643 12.80568,26.68093"
       id="path1314"
       style="font-style:normal;font-variant:normal;font-weight:normal;font-stretch:normal;letter-spacing:normal;word-spacing:normal;text-anchor:start;fill:none;stroke:#000000;stroke-width:6.1367631;stroke-linecap:butt;stroke-linejoin:miter;stroke-miterlimit:10.43299961;stroke-dasharray:none;stroke-dashoffset:0;stroke-opacity:1" />
    <path
       inkscape:connector-curvature="0"
       d="m 112.7202,-749.2724 0,0 0,0 0,0.0711 0,0.0711 -0.71143,0.28459 0,0.2846 0,0.35574 0,0.49805 0,0.49804 -0.71142,0.64035 0,0.64034 0,0.78264 -0.71143,0.78264 0,0.78264 -0.71143,0.92494 0,0.92494 -0.71143,0.92494 0,0.99609 -0.71142,0.99608 -0.71143,1.06724 -0.71143,1.06724 -0.71142,1.13839 0,1.06723 -0.71143,1.13839 -0.71143,1.06724 -1.42285,1.13838 -0.71143,1.13839 -0.71143,1.06724 -0.71142,1.13838 -0.71143,1.06724 -1.422853,1.06724 -0.711427,1.06724 -1.422854,0.99608 -0.711427,0.99609 c -8.537124,4.12665 7.825701,14.44328 12.094261,26.68094"
       id="path1316"
       style="font-style:normal;font-variant:normal;font-weight:normal;font-stretch:normal;letter-spacing:normal;word-spacing:normal;text-anchor:start;fill:none;stroke:#000000;stroke-width:6.1367631;stroke-linecap:butt;stroke-linejoin:miter;stroke-miterlimit:10.43299961;stroke-dasharray:none;stroke-dashoffset:0;stroke-opacity:1" />
    <path
       inkscape:connector-curvature="0"
       d="m 253.58275,-765.70786 0,0 0,0.0711 0,0.0711 0,0.0711 0,0.1423 0,0.1423 0,0.14229 0,0.21345 0,0.4269 -0.71143,0.49804 0,0.56919 0,0.71149 -0.71143,0.7115 0,0.78264 0,0.85379 -0.71143,0.92494 0,0.92494 -0.71142,0.99608 0,0.99609 -0.71143,1.06724 -0.71143,1.06724 -0.71142,1.13838 0,1.06724 -0.71143,1.13839 -0.71143,1.06723 -0.71142,1.13839 -0.71143,1.13839 -0.71143,1.06724 -0.71143,1.06723 -0.71142,1.06724 -1.42286,0.99609 -0.71142,0.99609 -0.71143,0.92494 -1.42285,0.85379 -0.71143,0.85379 -1.42286,0.78264 c -6.40284,4.1978 9.95998,16.43545 12.09426,26.68093"
       id="path1318"
       style="font-style:normal;font-variant:normal;font-weight:normal;font-stretch:normal;letter-spacing:normal;word-spacing:normal;text-anchor:start;fill:none;stroke:#000000;stroke-width:6.1367631;stroke-linecap:butt;stroke-linejoin:miter;stroke-miterlimit:10.43299961;stroke-dasharray:none;stroke-dashoffset:0;stroke-opacity:1" />
    <path
       inkscape:connector-curvature="0"
       d="m 188.13146,-704.30613 0,0.0712 0,0 0,0.0711 0,0.0711 0,0.14229 0,0.1423 0,0.1423 0,0.21345 -0.71142,0.42689 0,0.49805 0,0.64034 0,0.64034 -0.71143,0.71149 0,0.85379 0,0.85379 -0.71143,0.85379 0,0.99609 -0.71143,0.92494 0,1.06724 -0.71142,1.06724 -0.71143,1.06723 0,1.06724 -0.71143,1.06724 -0.71142,1.13838 -0.71143,1.13839 -0.71143,1.06724 -0.71143,1.13838 -0.71142,1.06724 -0.71143,1.06724 -0.71143,1.06724 -1.42285,0.99609 -0.71143,0.99608 -0.71142,0.92494 -1.42286,0.92494 -0.71143,0.78264 -1.42285,0.78264 c -6.40284,6.11883 9.95998,16.43546 12.09426,26.68094"
       id="path1320"
       style="font-style:normal;font-variant:normal;font-weight:normal;font-stretch:normal;letter-spacing:normal;word-spacing:normal;text-anchor:start;fill:none;stroke:#000000;stroke-width:6.1367631;stroke-linecap:butt;stroke-linejoin:miter;stroke-miterlimit:10.43299961;stroke-dasharray:none;stroke-dashoffset:0;stroke-opacity:1" />
    <path
       inkscape:connector-curvature="0"
       d="m 36.882082,-708.14819 0,0 0,0 -0.07114,0.1423 0,0.2846 -0.07114,0.28459 -0.07114,0.35575 -0.142286,0.49804 -0.07114,0.5692 -0.142286,0.56919 -0.213428,0.64034 -0.213428,0.78264 -0.213428,0.78265 -0.284571,0.78264 -0.284571,0.92494 -0.355713,0.92493 -0.355714,0.92494 -0.426856,0.99609 -0.426856,1.06724 -0.497999,0.99609 -0.569142,1.06723 -0.569141,1.13839 -0.640284,1.06724 -0.711427,1.13839 -0.78257,1.13838 -0.78257,1.06724 -0.853712,1.13839 -0.924855,1.13838 -0.924856,1.06724 -1.06714,1.06724 -1.06714,1.06723 -1.138284,1.06724 -1.280568,0.99609 -1.280569,0.99609 c -6.118272,3.84205 10.315692,14.15868 14.157397,26.39634"
       id="path1322"
       style="font-style:normal;font-variant:normal;font-weight:normal;font-stretch:normal;letter-spacing:normal;word-spacing:normal;text-anchor:start;fill:none;stroke:#000000;stroke-width:6.1367631;stroke-linecap:butt;stroke-linejoin:miter;stroke-miterlimit:10.43299961;stroke-dasharray:none;stroke-dashoffset:0;stroke-opacity:1" />
    <path
       inkscape:connector-curvature="0"
       d="m -26.506064,-767.62889 0,0 0,0.0711 0,0.0711 -0.07114,0.0711 0,0.0711 -0.07114,0.1423 0,0.21345 -0.07114,0.14229 -0.142285,0.4269 -0.142286,0.49804 -0.142285,0.64035 -0.213428,0.64034 -0.213428,0.71149 -0.284571,0.78264 -0.284571,0.85379 -0.355713,0.92494 -0.355714,0.92494 -0.355713,0.99609 -0.426857,0.99609 -0.497999,0.99608 -0.497998,1.06724 -0.497999,1.13839 -0.569142,1.06724 -0.640284,1.13838 -0.640285,1.06724 -0.711427,1.13839 -0.711427,1.13838 -0.782569,1.06724 -0.78257,1.06724 -0.853712,1.06723 -0.924855,0.99609 -0.924856,0.99609 -0.995997,0.99609 -1.067141,0.85379 -1.06714,0.92494 -1.067141,0.78264 c -6.118272,6.11883 9.959978,16.36431 12.165402,26.68094"
       id="path1324"
       style="font-style:normal;font-variant:normal;font-weight:normal;font-stretch:normal;letter-spacing:normal;word-spacing:normal;text-anchor:start;fill:none;stroke:#000000;stroke-width:6.1367631;stroke-linecap:butt;stroke-linejoin:miter;stroke-miterlimit:10.43299961;stroke-dasharray:none;stroke-dashoffset:0;stroke-opacity:1" />
    <path
       inkscape:connector-curvature="0"
       d="m -79.863089,-859.90935 0,0 0,0.0711 0,0.0711 -0.07114,0.0711 0,0.1423 -0.07114,0.14229 0,0.1423 -0.07114,0.1423 -0.142285,0.49805 -0.142286,0.49804 -0.142285,0.56919 -0.213428,0.71149 -0.213428,0.7115 -0.284571,0.78264 -0.284571,0.85379 -0.355713,0.92494 -0.355714,0.92494 -0.355714,0.99608 -0.426856,0.99609 -0.497999,1.06724 -0.497998,1.06724 -0.497999,1.06723 -0.569142,1.13839 -0.640284,1.13839 -0.640285,1.06723 -0.711427,1.13839 -0.711427,1.06724 -0.782569,1.13839 -0.78257,1.06723 -0.853712,0.99609 -0.924855,1.06724 -0.924856,0.92494 -0.995997,0.99609 -1.067141,0.85379 -1.06714,0.85379 -1.067141,0.78264 c -6.118268,4.1978 10.244549,16.3643 12.165402,26.68093"
       id="path1326"
       style="font-style:normal;font-variant:normal;font-weight:normal;font-stretch:normal;letter-spacing:normal;word-spacing:normal;text-anchor:start;fill:none;stroke:#000000;stroke-width:6.1367631;stroke-linecap:butt;stroke-linejoin:miter;stroke-miterlimit:10.43299961;stroke-dasharray:none;stroke-dashoffset:0;stroke-opacity:1" />
    <path
       inkscape:connector-curvature="0"
       d="m -22.593215,-890.50349 0,0 0,0.0712 -0.07114,0.0711 0,0.0711 0,0.1423 -0.07114,0.14229 0,0.1423 -0.07114,0.21345 -0.142285,0.4269 -0.142285,0.49804 -0.142286,0.56919 -0.213428,0.64035 -0.213428,0.78264 -0.213428,0.78264 -0.284571,0.85379 -0.355713,0.85379 -0.355714,0.92494 -0.355713,0.99608 -0.426856,0.99609 -0.497999,1.06724 -0.497999,1.06724 -0.497999,1.06724 -0.569142,1.13838 -0.640284,1.06724 -0.640284,1.13839 -0.640285,1.06723 -0.782569,1.13839 -0.78257,1.06724 -0.78257,1.06723 -0.853712,1.06724 -0.924855,1.06724 -0.924855,0.99609 -0.995998,0.92494 -1.067141,0.92494 -1.138283,0.85379 -1.138283,0.78264 c -8.039125,6.11882 8.323696,16.43545 12.521115,26.39634"
       id="path1328"
       style="font-style:normal;font-variant:normal;font-weight:normal;font-stretch:normal;letter-spacing:normal;word-spacing:normal;text-anchor:start;fill:none;stroke:#000000;stroke-width:6.1367631;stroke-linecap:butt;stroke-linejoin:miter;stroke-miterlimit:10.43299961;stroke-dasharray:none;stroke-dashoffset:0;stroke-opacity:1" />
    <path
       inkscape:connector-curvature="0"
       d="m 38.802935,-818.78513 0,0 0,0.0711 0,0.0711 -0.07114,0.0711 -0.07114,0.21345 -0.07114,0.2846 -0.142286,0.42689 -0.142285,0.4269 -0.142286,0.56919 -0.213428,0.56919 -0.213428,0.7115 -0.284571,0.71149 -0.28457,0.78264 -0.355714,0.85379 -0.355713,0.85379 -0.355714,0.92494 -0.426856,0.92494 -0.497999,0.99608 -0.497999,1.06724 -0.497999,1.06724 -0.640284,1.06724 -0.569142,1.06723 -0.640284,1.06724 -0.711427,1.13839 -0.711427,1.13839 -0.78257,1.13838 -0.782569,1.06724 -0.853713,1.13839 -0.924855,1.06723 -0.924855,1.13839 -0.995998,0.99609 -1.06714,1.06724 -1.067141,0.99608 -1.138283,0.99609 c -6.047129,3.91321 10.315692,16.43546 12.236544,26.39634"
       id="path1330"
       style="font-style:normal;font-variant:normal;font-weight:normal;font-stretch:normal;letter-spacing:normal;word-spacing:normal;text-anchor:start;fill:none;stroke:#000000;stroke-width:6.1367631;stroke-linecap:butt;stroke-linejoin:miter;stroke-miterlimit:10.43299961;stroke-dasharray:none;stroke-dashoffset:0;stroke-opacity:1" />
    <path
       inkscape:connector-curvature="0"
       d="m -79.863089,-970.2617 0,0 0,0.0711 0,0.1423 -0.07114,0.21345 -0.07114,0.28459 -0.07114,0.4269 -0.07114,0.42689 -0.07114,0.5692 -0.142286,0.56919 -0.213428,0.64034 -0.213428,0.71149 -0.213428,0.78264 -0.213428,0.85379 -0.355714,0.85379 -0.28457,0.85379 -0.355714,0.99609 -0.426856,0.99609 -0.426856,0.99609 -0.497999,0.99609 -0.569142,1.06723 -0.569141,1.06724 -0.640285,1.13839 -0.711427,1.06724 -0.78257,1.13838 -0.782569,1.06724 -0.853713,1.13839 -0.924855,1.06723 -0.995997,1.13839 -0.995998,1.06724 -1.138284,1.06723 -1.138283,0.99609 -1.280568,1.06724 -1.280569,0.92494 c -6.118273,6.11883 10.244549,16.43546 12.165402,26.68094"
       id="path1332"
       style="font-style:normal;font-variant:normal;font-weight:normal;font-stretch:normal;letter-spacing:normal;word-spacing:normal;text-anchor:start;fill:none;stroke:#000000;stroke-width:6.1367631;stroke-linecap:butt;stroke-linejoin:miter;stroke-miterlimit:10.43299961;stroke-dasharray:none;stroke-dashoffset:0;stroke-opacity:1" />
  </g>
</svg>
